<?xml version="1.0" encoding="UTF-8"?>
<svg version="1.1" xmlns="http://www.w3.org/2000/svg" width="700" height="700">
<path d="M0 0 C1.06092865 -0.00570007 2.1218573 -0.01140015 3.2149353 -0.01727295 C5.45545472 -0.02667163 7.69598765 -0.03323637 9.93652344 -0.03710938 C13.27825849 -0.0467093 16.61934904 -0.07773866 19.9609375 -0.109375 C38.95646041 -0.20310811 57.59600524 1.58753761 76.2109375 5.453125 C77.23026367 5.66219482 78.24958984 5.87126465 79.29980469 6.08666992 C101.46961737 10.79766993 122.90690634 18.04572562 143.4609375 27.578125 C144.54362915 28.07880493 144.54362915 28.07880493 145.64819336 28.58959961 C150.58511197 30.95147395 150.58511197 30.95147395 151.7109375 33.203125 C145.16304048 32.01532312 138.91622754 30.42484567 132.5859375 28.390625 C60.06412967 5.9866895 -21.03084621 14.73519557 -88.2890625 49.203125 C-157.02944098 85.95968302 -206.49242436 146.1705381 -229.26367188 220.63867188 C-232.25091662 231.02290361 -234.38667493 241.57353444 -236.2890625 252.203125 C-236.46695313 253.16621582 -236.64484375 254.12930664 -236.828125 255.12158203 C-241.68659856 282.49387505 -241.31430242 312.89702682 -236.2890625 340.203125 C-236.10102051 341.26756836 -235.91297852 342.33201172 -235.71923828 343.42871094 C-226.79968517 392.71686995 -205.32014076 438.78938266 -171.421875 475.84765625 C-169.59410533 477.86623704 -167.84560056 479.92540853 -166.1015625 482.015625 C-138.19898819 513.81306666 -97.15122705 536.51970901 -57.2890625 549.203125 C-56.56267578 549.43870117 -55.83628906 549.67427734 -55.08789062 549.91699219 C-46.89781484 552.55300832 -38.65680218 554.66972127 -30.2265625 556.390625 C-29.47246094 556.5455542 -28.71835937 556.7004834 -27.94140625 556.86010742 C-13.09986633 559.73847618 1.4423956 560.6110059 16.5234375 560.578125 C17.46636658 560.57758118 18.40929565 560.57703735 19.38079834 560.57647705 C35.15075967 560.53482017 50.24063598 559.475446 65.7109375 556.203125 C66.6994873 555.99945312 67.68803711 555.79578125 68.70654297 555.5859375 C84.91309099 552.16792509 100.7394265 547.34264472 116.59765625 542.609375 C123.44829238 540.5649596 130.31495651 538.58994958 137.2109375 536.703125 C138.04520264 536.47238281 138.87946777 536.24164062 139.73901367 536.00390625 C155.5560719 531.71717658 174.48300478 528.34578985 189.7109375 536.203125 C202.36059972 543.54030059 211.45181819 553.95879542 216.6484375 567.703125 C219.9850395 580.7137743 218.87217764 595.29835592 212.7109375 607.203125 C195.74932887 635.48452788 155.2662123 650.72351546 124.60644531 658.50341797 C115.0460683 660.81370806 105.41964619 662.6393635 95.7109375 664.203125 C94.68339355 664.36973633 93.65584961 664.53634766 92.59716797 664.70800781 C39.67104337 672.81948431 -15.5647799 666.45997587 -66.2890625 650.203125 C-67.56088379 649.799729 -67.56088379 649.799729 -68.85839844 649.38818359 C-105.71289267 637.54985391 -142.35583513 618.89605262 -172.2890625 594.203125 C-172.82821289 593.7587207 -173.36736328 593.31431641 -173.92285156 592.85644531 C-177.75332581 589.68693304 -181.54965614 586.47977151 -185.2890625 583.203125 C-186.00779541 582.57341797 -186.72652832 581.94371094 -187.46704102 581.29492188 C-193.9349519 575.55374985 -200.11750836 569.56090594 -206.23022461 563.44726562 C-207.84796442 561.8317182 -209.47356886 560.22437466 -211.09960938 558.6171875 C-217.61459819 552.13722384 -223.60106093 545.43481404 -229.2890625 538.203125 C-230.24162562 537.03363555 -231.19576571 535.8654265 -232.15234375 534.69921875 C-275.0645671 481.11026997 -304.14878763 408.97916488 -304.4921875 339.796875 C-304.49920181 338.84209763 -304.50621613 337.88732025 -304.51344299 336.90361023 C-304.53084978 333.83673321 -304.53729617 330.77004962 -304.5390625 327.703125 C-304.53973724 326.65266998 -304.54041199 325.60221497 -304.54110718 324.51992798 C-304.52448465 308.21851187 -303.96468131 292.31687611 -301.2890625 276.203125 C-301.11745605 275.14013184 -300.94584961 274.07713867 -300.76904297 272.98193359 C-288.02420643 196.04594538 -247.27017959 117.98849457 -184.2890625 70.203125 C-183.32613281 69.43484375 -182.36320312 68.6665625 -181.37109375 67.875 C-167.24451809 56.65080972 -151.97191121 47.08312304 -136.2890625 38.203125 C-135.69125977 37.85830078 -135.09345703 37.51347656 -134.47753906 37.15820312 C-95.13544203 14.54476248 -45.51407002 0.19564777 0 0 Z " fill="#5799E1" transform="translate(332.2890625,16.796875)"/>
<path d="M0 0 C1.00049881 -0.0033284 2.00099762 -0.0066568 3.03181458 -0.01008606 C5.14547267 -0.01512603 7.25913864 -0.0174953 9.37280273 -0.01733398 C12.52797484 -0.01949424 15.68278141 -0.03760863 18.83789062 -0.05664062 C37.40234453 -0.1102089 55.71629456 0.89629592 73.89453125 4.85546875 C75.7211731 5.24412109 75.7211731 5.24412109 77.5847168 5.640625 C88.77460234 8.10300076 99.59718172 11.35792589 110.39453125 15.16796875 C111.11350586 15.41514648 111.83248047 15.66232422 112.57324219 15.91699219 C147.22829943 27.87323295 178.44153745 47.53220066 205.39453125 72.16796875 C206.34199219 73.01101562 207.28945313 73.8540625 208.265625 74.72265625 C221.22726884 86.29979947 232.20086117 99.10352256 242.39453125 113.16796875 C243.14452393 114.19736572 243.14452393 114.19736572 243.90966797 115.24755859 C257.91199482 134.69754311 268.82819331 156.44780811 276.39453125 179.16796875 C276.70471191 180.09029297 277.01489258 181.01261719 277.33447266 181.96289062 C286.02190273 208.14516068 289.82367172 234.32145594 289.70703125 261.85546875 C289.7048761 262.77583923 289.70272095 263.69620972 289.70050049 264.64447021 C289.59678059 292.30530819 286.13294024 319.80058971 274.39453125 345.16796875 C273.94207031 346.14902588 273.94207031 346.14902588 273.48046875 347.14990234 C265.1243368 365.07227681 253.64974901 385.42618017 234.39453125 393.16796875 C224.84951579 395.90407276 211.93096197 395.56514255 202.8828125 391.5546875 C191.12487474 385.00199063 184.91161421 377.76049828 180.05859375 365.33203125 C178.32946124 357.09322343 179.41555297 349.30455355 181.64453125 341.29296875 C181.89904053 340.34317139 182.1535498 339.39337402 182.41577148 338.41479492 C185.33451036 327.84723117 188.82811591 317.45654248 192.25906372 307.04711914 C197.95402423 289.75718498 203.47907074 272.74219148 203.6328125 254.37890625 C203.64088425 253.43979401 203.64895599 252.50068176 203.65727234 251.53311157 C203.67106049 249.54455375 203.68180604 247.55597278 203.68969727 245.56738281 C203.70111002 243.57609898 203.72138727 241.58484305 203.7512207 239.59375 C204.03844195 220.36436749 201.47106465 202.54966764 195.14453125 184.35546875 C194.75467041 183.21311768 194.36480957 182.0707666 193.96313477 180.89379883 C190.80676752 171.87350604 187.05461918 163.49623835 182.39453125 155.16796875 C181.79382813 154.02070313 181.193125 152.8734375 180.57421875 151.69140625 C172.75156024 137.19166683 162.25456401 124.44119849 150.82226562 112.64257812 C149.43402539 111.20875955 148.06243805 109.75887594 146.69140625 108.30859375 C139.79588434 101.17112371 132.38359336 95.02099884 124.39453125 89.16796875 C123.82814941 88.75192383 123.26176758 88.33587891 122.67822266 87.90722656 C92.42958017 66.01710422 57.02653986 54.48877883 20.39453125 49.16796875 C19.71358398 49.06339355 19.03263672 48.95881836 18.33105469 48.85107422 C-38.12675762 41.27548202 -98.95662276 58.94065939 -144.23046875 92.859375 C-152.09437253 98.86475225 -159.44942806 105.34128558 -166.60546875 112.16796875 C-167.45753906 112.9671875 -168.30960937 113.76640625 -169.1875 114.58984375 C-176.07811198 121.23087451 -181.85870518 128.54726054 -187.60546875 136.16796875 C-188.6728125 137.56015625 -188.6728125 137.56015625 -189.76171875 138.98046875 C-207.24472772 162.29114737 -218.81367287 189.20628942 -225.41796875 217.48046875 C-225.61310059 218.31457275 -225.80823242 219.14867676 -226.00927734 220.00805664 C-229.21242127 234.61727662 -229.98203214 249.02086219 -229.91796875 263.91796875 C-229.91614594 264.79948608 -229.91432312 265.68100342 -229.91244507 266.5892334 C-229.86808962 279.32950636 -229.51039713 291.71045307 -226.60546875 304.16796875 C-226.41259277 305.01713867 -226.2197168 305.86630859 -226.02099609 306.74121094 C-224.02766343 315.38680279 -221.87335071 323.99355441 -218.98828125 332.390625 C-218.60546875 334.16796875 -218.60546875 334.16796875 -219.60546875 337.16796875 C-228.04112978 321.72016449 -233.8175423 305.37361373 -237.98046875 288.29296875 C-238.33830444 286.83443481 -238.33830444 286.83443481 -238.70336914 285.34643555 C-242.33397703 269.64966571 -243.01353081 254.20891215 -242.98046875 238.16796875 C-242.97992493 237.17384979 -242.9793811 236.17973083 -242.9788208 235.15548706 C-242.94099843 220.11141352 -242.25104623 205.82796219 -238.60546875 191.16796875 C-238.39116211 190.25724609 -238.17685547 189.34652344 -237.95605469 188.40820312 C-229.98606116 154.92726963 -215.00054335 124.11399913 -193.60546875 97.16796875 C-192.83460938 96.19214844 -192.06375 95.21632813 -191.26953125 94.2109375 C-179.9961804 80.27877748 -167.00209193 66.87315009 -152.60546875 56.16796875 C-151.98978027 55.69762207 -151.3740918 55.22727539 -150.73974609 54.74267578 C-108.7654877 22.7371794 -53.28835675 0.06345869 0 0 Z " fill="#5C6CE2" transform="translate(382.60546875,54.83203125)"/>
<path d="M0 0 C1.57451343 1.34017949 3.1368728 2.69475408 4.6875 4.0625 C5.56664062 4.79855469 6.44578125 5.53460938 7.3515625 6.29296875 C28.08332677 24.19236523 41.80082476 49.97206751 45.6875 77.0625 C45.89990729 81.61895818 45.91556713 86.17466132 45.92773438 90.73535156 C45.93731993 92.89689443 45.96833237 95.05743455 46 97.21875 C46.23628671 127.96632696 33.62570276 154.85982319 12.6875 177.0625 C12.07519531 177.73925781 11.46289062 178.41601562 10.83203125 179.11328125 C-1.49074124 192.22429078 -17.71349958 200.6878411 -34.5625 206.4375 C-35.60615723 206.79569824 -35.60615723 206.79569824 -36.67089844 207.16113281 C-47.83204736 210.7566358 -59.08364419 211.50536902 -70.75 211.5 C-71.79873291 211.50110275 -71.79873291 211.50110275 -72.86865234 211.50222778 C-91.52200352 211.45096188 -107.65491303 207.34486766 -124.3125 199.0625 C-125.78396484 198.35480469 -125.78396484 198.35480469 -127.28515625 197.6328125 C-153.33573649 184.36388386 -173.32270663 159.59798807 -182.625 132.125 C-192.63529808 100.67589735 -190.22247038 68.31418265 -175.21289062 38.90820312 C-170.5338838 30.22098515 -164.92581621 22.3968592 -158.3125 15.0625 C-157.56613281 14.23363281 -156.81976563 13.40476562 -156.05078125 12.55078125 C-116.06419588 -29.55079707 -46.1175876 -36.06351637 0 0 Z " fill="#438ADF" transform="translate(437.3125,244.9375)"/>
<path d="M0 0 C1.85486952 2.78230428 2.72462112 4.84363607 3.6875 8 C3.95949219 8.86625 4.23148438 9.7325 4.51171875 10.625 C5 13 5 13 4 16 C2.93907266 14.09392715 1.90179899 12.17467254 0.875 10.25 C0.29492188 9.18265625 -0.28515625 8.1153125 -0.8828125 7.015625 C-2 4 -2 4 -1.1796875 1.609375 C-0.79039062 1.07828125 -0.40109375 0.5471875 0 0 Z " fill="#BBA0EF" transform="translate(159,376)"/>
<path d="M0 0 C1.03179606 0.96715918 2.0392288 1.96225307 3 3 C1.39431334 2.71682074 -0.20952047 2.42312209 -1.8125 2.125 C-2.70582031 1.96257813 -3.59914063 1.80015625 -4.51953125 1.6328125 C-7 1 -7 1 -10 -1 C-6.17338712 -2.47177418 -3.68989378 -1.57016757 0 0 Z " fill="#B39EEE" transform="translate(481,47)"/>
</svg>
